PathFileType	4	(X/Y/Z)	C:\MyCloud\GitHub\OpenSimScripting\Matlab\Data\Gait2354_Simbody\Static_Marker.trc	
DataRate	CameraRate	NumFrames	NumMarkers	Units	OrigDataRate	OrigDataStartFrame	OrigNumFrames
100	100	6	33	mm	100	38	100
Frame#	Time	C7			CLAV			STRN			LSHO			RSHO			LASIS			RLSIS			LPSIS			RPSIS			LGTF			LLCF			LMCF			LAF			RGTF			RLCF			RMCF			RAF			RFH			RANK			RMANK			RATT			LFH			LANK			LMANK			LATT			LHEE			L5MT			LTOE			L1MT			RHEE			R5MT			RTOE			R1MT			
		X1	Y1	Z1	X2	Y2	Z2	X3	Y3	Z3	X4	Y4	Z4	X5	Y5	Z5	X6	Y6	Z6	X7	Y7	Z7	X8	Y8	Z8	X9	Y9	Z9	X10	Y10	Z10	X11	Y11	Z11	X12	Y12	Z12	X13	Y13	Z13	X14	Y14	Z14	X15	Y15	Z15	X16	Y16	Z16	X17	Y17	Z17	X18	Y18	Z18	X19	Y19	Z19	X20	Y20	Z20	X21	Y21	Z21	X22	Y22	Z22	X23	Y23	Z23	X24	Y24	Z24	X25	Y25	Z25	X26	Y26	Z26	X27	Y27	Z27	X28	Y28	Z28	X29	Y29	Z29	X30	Y30	Z30	X31	Y31	Z31	X32	Y32	Z32	X33	Y33	Z33	

38	0.38000	371.13586	1586.99158	-41.81162	527.73877	1497.25916	-27.67324	556.14935	1436.79651	-34.98730	430.21387	1561.55090	-146.13527	417.98346	1560.49316	73.60571	505.51575	990.28271	-181.02509	503.12454	997.48016	115.55470	299.46957	1023.66541	-75.16127	305.01178	1024.36401	-9.42034	392.18961	881.41394	-214.58603	460.11145	517.81702	-219.87978	448.81937	516.16150	-92.02213	532.65912	799.04785	-200.94624	437.92758	879.55444	148.93544	478.45227	514.97784	148.30711	443.42294	496.87381	22.68020	540.37744	618.89429	97.08768	452.04926	455.30267	169.34164	386.43420	48.43519	143.93912	403.22177	75.23118	47.72231	496.71936	424.98135	118.33147	432.52771	471.80524	-233.42461	384.18802	54.39899	-200.93999	402.51166	78.71742	-106.44507	479.50876	428.40210	-192.26187	336.18311	67.16020	-153.28429	502.17804	9.44726	-229.79132	589.25952	30.47579	-145.35065	531.09283	22.71977	-106.08786	332.74805	72.14285	101.40347	495.99939	19.29675	174.20624	583.34357	27.77019	100.63463	527.09973	22.73594	54.89864	
39	0.39000	371.17673	1586.96936	-41.82384	527.74933	1497.26978	-27.64858	556.14130	1436.83276	-34.97690	430.21890	1561.51086	-146.14529	417.98642	1560.48230	73.63490	505.51724	990.30719	-181.03787	503.13834	997.46899	115.55824	299.49240	1023.60199	-75.12920	305.06354	1024.33691	-9.40939	392.20218	881.44891	-214.56998	460.12390	517.80408	-219.90514	448.82843	516.16827	-92.01264	532.67749	799.07202	-200.96823	437.91498	879.56793	148.92055	478.44162	515.00751	148.31506	443.27243	496.77890	22.63146	540.37689	618.92944	97.10426	452.05179	455.31265	169.36037	386.41293	48.46449	143.93976	403.18762	75.19936	47.72730	496.70874	425.00333	118.32874	432.58685	471.80856	-233.39037	384.18597	54.37125	-200.92065	402.43167	78.70899	-106.39768	479.50552	428.40237	-192.27567	336.18561	67.17022	-153.23460	502.15237	9.53314	-229.83575	589.30786	30.50189	-145.36639	531.09503	22.80167	-106.06578	332.75195	72.13023	101.42290	495.97784	19.30475	174.23001	583.32220	27.76406	100.62595	527.08380	22.68011	54.86537	
40	0.40000	371.20081	1586.95520	-41.79795	527.79614	1497.20789	-27.64852	556.14923	1436.76147	-34.98885	430.25989	1561.41235	-146.08792	417.99307	1560.43774	73.67155	505.53986	990.26819	-181.07629	503.17352	997.41174	115.55169	299.53131	1023.52472	-75.07000	305.06842	1024.35315	-9.36552	392.21039	881.34943	-214.54846	460.15283	517.77319	-219.91063	448.82251	516.06085	-92.00841	532.68372	799.01440	-201.01131	437.92404	879.52698	148.89566	478.46179	514.96423	148.34398	443.34998	496.78525	22.65498	540.39093	618.93494	97.11222	452.07489	455.22342	169.35658	386.43292	48.43204	143.95972	403.17688	75.10281	47.78505	496.75418	424.97128	118.31254	432.61661	471.74957	-233.37991	384.21136	54.25805	-200.87169	402.50391	78.59580	-106.36607	479.51645	428.33475	-192.31592	336.18915	67.08118	-153.23517	502.20306	9.44757	-229.82100	589.31335	30.43392	-145.35361	531.09711	22.68673	-106.10165	332.75543	72.09314	101.43055	496.00980	19.24545	174.18658	583.33136	27.73263	100.62860	527.12341	22.56445	54.83250	
41	0.41000	371.21185	1586.97644	-41.79445	527.79993	1497.18909	-27.65608	556.15070	1436.74365	-34.98529	430.28845	1561.47339	-146.12373	418.03564	1560.49561	73.65642	505.54688	990.27325	-181.09680	503.21069	997.43213	115.52361	299.49008	1023.61469	-75.09530	305.08688	1024.40332	-9.37013	392.11517	881.43567	-214.54128	460.13800	517.78131	-219.90788	448.87579	516.09131	-92.05082	532.64899	799.05353	-201.03354	437.96991	879.54041	148.89960	478.47137	514.95898	148.29417	443.57803	496.88962	22.72984	540.36169	618.88751	97.09655	452.07007	455.25183	169.34590	386.45514	48.43934	143.93034	403.23889	75.12347	47.73934	496.73459	424.95947	118.31437	432.58237	471.73279	-233.39879	384.21405	54.33722	-200.90355	402.52838	78.65338	-106.41634	479.51974	428.36224	-192.30190	336.18198	67.15051	-153.25713	502.19333	9.44920	-229.78271	589.30353	30.45551	-145.36154	531.10571	22.72660	-106.09440	332.75116	72.11852	101.40400	495.99695	19.28737	174.20332	583.35498	27.79677	100.64793	527.12079	22.68719	54.89172	
42	0.42000	371.23709	1586.98706	-41.79932	527.79181	1497.22510	-27.60858	556.14722	1436.79443	-34.93654	430.27371	1561.48816	-146.13844	418.00519	1560.48669	73.65077	505.54428	990.33447	-181.10199	503.22369	997.46887	115.54446	299.52969	1023.63013	-75.08730	305.10159	1024.38220	-9.37616	392.16257	881.46979	-214.51503	460.10892	517.82520	-219.90993	448.85989	516.19214	-92.06435	532.61969	799.08978	-201.11473	437.97733	879.56879	148.92583	478.44836	515.00867	148.32257	443.38574	496.85114	22.66816	540.37018	618.92334	97.11173	452.06961	455.30212	169.34190	386.40878	48.45863	143.94673	403.18582	75.22201	47.72151	496.71722	425.03497	118.36001	432.51456	471.84036	-233.42102	384.19540	54.40726	-200.91982	402.45584	78.71043	-106.42899	479.49219	428.38800	-192.29700	336.19147	67.15304	-153.25092	502.15042	9.55179	-229.81313	589.30731	30.49278	-145.34811	531.04102	22.77695	-106.06598	332.75766	72.12769	101.41805	495.99167	19.28478	174.20602	583.31946	27.81511	100.65414	527.09491	22.73232	54.88651	
43	0.43000	371.25070	1586.94885	-41.81218	527.82062	1497.17163	-27.61024	556.16425	1436.74768	-34.96281	430.31274	1561.39111	-146.12611	417.99768	1560.42859	73.67757	505.49673	990.28955	-181.13605	503.26364	997.42175	115.49899	299.55792	1023.55652	-75.03806	305.14316	1024.32800	-9.33188	392.13538	881.38898	-214.48706	460.14267	517.76489	-219.89795	448.86734	516.06915	-92.03283	532.62830	799.02417	-201.19620	438.01147	879.52740	148.91898	478.47495	514.97778	148.32310	443.40012	496.85336	22.65931	540.39996	618.90167	97.11243	452.08273	455.25732	169.35826	386.40729	48.41760	143.97112	403.13983	75.11865	47.77406	496.74811	424.96594	118.31489	432.60007	471.76892	-233.40710	384.19958	54.28188	-200.88538	402.49182	78.58894	-106.38198	479.50342	428.36789	-192.36052	336.20004	67.12789	-153.21919	502.18085	9.53370	-229.85233	589.32104	30.44923	-145.34903	531.05945	22.74500	-106.06624	332.76294	72.11340	101.46629	496.00461	19.25389	174.17120	583.32056	27.72225	100.61172	527.09509	22.62316	54.83103	
